<?xml version="1.0" standalone="no"?>
<!DOCTYPE svg PUBLIC "-//W3C//DTD SVG 20010904//EN"
 "http://www.w3.org/TR/2001/REC-SVG-20010904/DTD/svg10.dtd">
<svg version="1.0" xmlns="http://www.w3.org/2000/svg"
 width="1000.000000pt" height="1000.000000pt" viewBox="0 0 1000.000000 1000.000000"
 preserveAspectRatio="xMidYMid meet">
<metadata>
Created by potrace 1.11, written by Peter Selinger 2001-2013
</metadata>
<g transform="translate(0.000000,1000.000000) scale(0.100000,-0.100000)"
fill="#000000" stroke="none">
<path d="M7099 7656 c-2 -2 -38 -6 -79 -10 -333 -29 -627 -128 -865 -290 -171
-116 -350 -316 -453 -506 -163 -301 -219 -704 -147 -1070 10 -51 58 -187 87
-245 73 -145 210 -302 340 -387 228 -152 526 -252 1178 -397 743 -166 968
-237 1203 -378 185 -112 279 -314 280 -603 2 -247 -69 -421 -233 -578 -158
-151 -478 -276 -790 -309 -151 -16 -494 -9 -603 13 -12 2 -49 9 -82 15 -93 17
-257 74 -353 124 -180 92 -343 254 -429 426 -85 171 -124 321 -148 569 -2 19
-4 38 -4 43 -1 4 -147 7 -325 7 l-324 0 3 -112 c9 -288 63 -512 176 -743 188
-382 532 -672 969 -815 115 -38 261 -73 355 -86 28 -3 52 -8 55 -9 17 -10 223
-20 415 -20 195 0 303 6 400 20 17 3 46 7 65 9 299 42 614 150 877 301 378
218 576 524 639 992 3 21 7 119 8 218 3 203 -12 331 -60 488 -133 435 -476
717 -1061 872 -54 15 -108 28 -121 31 -12 2 -98 22 -190 44 -92 22 -223 54
-292 70 -69 16 -174 41 -235 56 -60 14 -117 27 -125 29 -8 2 -58 14 -110 28
-615 165 -770 247 -876 462 -48 100 -64 186 -60 330 7 220 75 377 236 549 104
111 232 179 420 227 149 37 206 43 435 43 188 1 298 -6 365 -24 19 -5 51 -12
70 -15 71 -12 207 -61 293 -105 203 -104 337 -255 422 -474 34 -88 81 -275 89
-353 3 -21 5 -41 5 -45 1 -5 148 -8 327 -8 l327 0 -7 118 c-13 226 -36 351
-98 527 -112 317 -345 564 -697 740 -144 71 -355 148 -472 170 -12 2 -28 6
-37 9 -9 3 -35 7 -57 11 -22 3 -47 7 -55 10 -8 2 -40 7 -70 10 -30 3 -68 8
-85 11 -34 6 -490 15 -496 10z"/>
<path d="M885 4986 c0 -1394 3 -2537 6 -2540 7 -7 3740 -8 3747 -2 3 4 6 479
3 584 l-1 22 -1540 0 c-1225 0 -1540 3 -1541 13 -1 16 -1 1690 0 1700 1 4 631
7 1401 7 l1400 0 1 48 c0 47 0 462 -1 514 l0 28 -1402 2 -1401 3 -1 773 -1
772 1518 0 1517 0 0 305 0 305 -1853 0 -1852 0 0 -2534z"/>
</g>
</svg>
